/* XPM */
static const char *team_logo_xpm[] = {
"256 64 64 1",
"A	c #000000",
"B	c #030303",
"C	c #DB0000",
"D	c #940101",
"E	c #0C0D0E",
"F	c #3A3A3A",
"G	c #272727",
"H	c #464646",
"I	c #6F6F6F",
"J	c #575758",
" 	c None",
"L	c #069C06",
"M	c #039A03",
"N	c #0B9E0B",
"O	c #13A113",
"P	c #15A215",
"Q	c #1CA51C",
"R	c #11A011",
"S	c #26A826",
"T	c #28A928",
"U	c #3AB03A",
"V	c #34AE34",
"W	c #4EB84E",
"X	c #3EB23E",
"Y	c #46B546",
"Z	c #57BC57",
"a	c #61C061",
"b	c #6BC46B",
"c	c #75C875",
"d	c #78C978",
"e	c #447DBC",
"f	c #3D78B9",
"g	c #4A82BD",
"h	c #6B97C7",
"i	c #6292C6",
"j	c #929292",
"k	c #88D088",
"l	c #9CD89C",
"m	c #95D595",
"n	c #84CE84",
"o	c #A7DCA7",
"p	c #BCE4BC",
"q	c #B1E0B1",
"r	c #91B0D2",
"s	c #B4CAE3",
"t	c #AEC0D4",
"u	c #C6C6C6",
"v	c #D8D8D8",
"w	c #CDCED0",
"x	c #C3E7C3",
"y	c #C7E9C7",
"z	c #D7EFD7",
"0	c #D2EDD2",
"1	c #DAF1DA",
"2	c #CBDAEA",
"3	c #E8E8E8",
"4	c #E9F7E9",
"5	c #FFFFFF",
"6	c #FDFDFD",
"7	c #FAFAFA",
"8	c #F4F7F5",
"9	c #EAEFF5",
"+	c #DAE5EF",
"/	c #B0B0B1",
"                                                                                                                                                                                                                                                                ",
"                                                      DCCCCCCCCCC5CCCCCCCCCCCD                                                                                                                                                                                  ",
"                                                    DCCCCCCCCCC5B5CCCCCCCCCCCD                                                                                                                                                                                  ",
"                                                   DCCCCCCCCCC5BBB5CCCCCCCCCCCD                                                                                                                                                                                 ",
"                                                  DCCCCCCCCCC5BBBBB5CCCCCCCCCCCD                                                                                                                                                                                ",
"                                                DCCCCCCCCCC5BBBBBBB5CCCCCCCCCCCDD                                                                                                                                                                               ",
"                                               DCCCCCCCCCC5BBBBBBBBB5CCCCCCCCCCCCD                                                                                                                                                                              ",
"                                             DCCCCCCCCCC5BBBBBBBBBBB5CCCCCCCCCCCCD                                                                                                                                                                              ",
"                                            DCCCCCCCCCC5BBBBBBBBBBBBB5CCCCCCCCCCCCD                                                                                                                                                                             ",
"                                           DCCCCCCCCCC5BBBBBBBBBBBBBBB5CCCCCCCCCCCCD                                                                                                                                                                            ",
"                                         DCCCCCCCCCC5BBBBBBBBBBBBBBBBB5CCCCCCCCCCCCD                                                                                                                                                                            ",
"                                          DCCCCCCCC5BBBBBBBBBBBBBBBBBBB5CCCCCCCCCCD                                                                                                                                                                             ",
"                                           DCCCCCC5BBBBBBBBBBBBBBBBBBBBB5CCCCCCCCD                                                                                                                                                                              ",
"                                            DCCCC5BBBBBBBBBBBBBBBBBBBBBBB5CCCCCCD                                                                                                                                                                               ",
"                                            DCC5BBBBBBBBBBBBBBBBBBBBBBBBB5CCCCD                                                                                                                                                                                 ",
"                                   D         D5BBBBBBBBBBBBBBBBBBBBBBBBBBB5CCD                                                                                                                                                                                  ",
"                                  DCD        5BBBBBBBBBBBBBBBBBBBBBBBBBBBBB5D          D                                                                                                                                                                        ",
"                                DCCCD    5555555555555555555555555BBBBBBBBB5         DCD                                                                                                                                                                        ",
"                               DCCCCCD   5hhhhhhhhhhhhhhhhhhhhhhhh55BBBBBBBB5       DCCCD                                                                                                                                                                       ",
"                              DCCCCCCCD  55hhhhhhhhhhhhhhhhhhhhhhhhh55BBBBBBB5     DCCCCCD                                                                                                                                                                      ",
"                            DCCCCCCCCCD5BB5hhhhhhhhhhhhhhhhhhhhhhhhhh55BBBBBB5   DCCCCCCCD                      5555                                                                                                                                            ",
"                           DCCCCCCCCCC5BBBB5hhhhhhhhh55555555hhhhhhhhhh5BBBBBB5 DCCCCCCCCCD                    5hhhh55                                                                                                                                          ",
"                          DCCCCCCCCCC5BBBBBB5hhhhhhhh5BBBBBBB55hhhhhhhhh5BBBBBB5CCCCCCCCCCCD                  5hhhhhh5                                                                                                                                          ",
"                         DCCCCCCCCCC5BBBBBBBB5hhhhhhh5BBBBBBBBB5hhhhhhhhh5BBBBBB5CCCCCCCCCCCD               55hhhhhhhh5                                                                                                                                         ",
"                        DCCCCCCCCCC5BBBBBBBBB5hhhhhhh5BBBBBBBBBB5hhhhhhhhh5BBBBBB5CCCCCCCCCCCD              5hhhhhhhhh5                                                                                                                                         ",
"                      DCCCCCCCCCC55BBBBBBBBB5hhhhhhh5BBBBBBBBBBB5hhhhiiiii5BBBBBB5CCCCCCCCCCCD             5hhhhhiiiii5                                                                                                                                         ",
"                     DCCCCCCCCCC5BBBBBBBBBBB5hhhhhhh5BBBBBBBBBBB5iiiiiiiii5BBBBBBB5CCCCCCCCCCCD            5iiiiiiiiii5                                                                                                                                         ",
"                    DCCCCCCCCCC5BBBBBBBBBBBB5hhhhiii5BBBBBBBBBBBB5iiiiiiii5BBBBBBBB5CCCCCCCCCCCD            5iiiiiiii5                                                                                                                                          ",
"                  DCCCCCCCCCC55BBBBBBBBBBBB5iiiiiii5BBBBBBBBBBBBB5iiiiiii5BBBBBBBBB5CCCCCCCCCCCD            5iiiiiii5                                                                                                                                           ",
"                 DCCCCCCCCCC5BBBBBBBBBBBBBB5iiiiiii5BBBBBBBBBBBB5iiiiiii5BBBBBBBBBBB5CCCCCCCCCCCD            5iiiii5                                                                                                                                            ",
"               DCCCCCCCCCC55BBBBBBBBBBBBBB5iiiiiii5BBBBBBBBBBB5iiiiiiii5BBBBBBBBBBBB5CCCCCCCCCCCD            55555                                            555555                            5     55555                        555555                       ",
"              DCCCCCCCCCC5BBBBBBBBBBBBBBBB5iiiiiii5BBBBBBBBBB5iiiiiiii5BBBBBBBBBBBBBB5CCCCCCCCCCCD         555iii5                                         555gggggg555                      555g5 555ggggg55                    55gggggg55                     ",
"            DCCCCCCCCCCC5BBBBBBBBBBBBBBBB5iiiiiii5BBBBBBBBB5iiiiiiiii5BBBBBBBBBBBBBBB5CCCCCCCCCCCD    5555iiiiii5                                         5ggggggggggg5                555555gggg55ggggggggg5                  55ggggggggg5                     ",
"           DCCCCCCCCCCC5BBBBBBBBBBBBBBBBB5iiiiiii5BBBBBBBB5iiiiggggg5BBBBBBBBBBBBBBBBB5CCCCCCCCCCCD   5iiiiiiiii5                                       55ggggggggggggg55              5gggggggggggggggggggg5                 5gggggggggggg5                    ",
"          DCCCCCCCCCCC5BBBBBBBBBBBBBBBBBB5iiiiiii555555555ggggggggg5BBBBBBBBBBBBBBBBBBB5CCCCCCCCCCCD  5iiiiigggg5                                      5ggggggggggggggggg5             5gggggggggggggggfffggg5               5gggggggggggggg5                   ",
"        DCCCCCCCCCCC55BBBBBBBBBBBBBBBBBB5iiiggggggggggggggggggggg5BBBBBBBBBBBBBBBBBBBBB5CCCCCCCCCCCD  55ggggggg5                                     5ggggggg55555ggggggg5            5ggggggggggfffffgfgffff5             55gggggg55ggggggg5                   ",
"         DCCCCCCCCC55BBBBBBBBBBBBBBBBBBB5gggggggggggggggggggggg55BBBBBBBBBBBBBBBBBBBBBBB5CCCCCCCCCCCD  5ggggggg5                                    5ggggggg55    5gggggg5            5555gggffffg5555 ffffff5             5ggfffg5  5gffffff5                  ",
"          DCCCCCCCCC5BBBBBBBBBBBBBBBBBBB5ggggggggggggggggggg555BBBBBBBBBBBBBBBBBBBBBBBB5CCCCCCCCCCCD   5ggggggg5                                    5gggggg5      5ggggfff5              5ffffff55    5ffffff5            5ffffff555555ffffff5                  ",
"          DCCCCCCCCCC5BBBBBBBBBBBBBBBBB5ggggggg555555ggggggg5BBBBBBBBBBBBBBBBBBBBBBBB5CCCCCCCCCCCD    5ggggggg5          555555555555555555        5gggfff5        5ffffff5             5ffffff5     5ffffff5            5ffffffffffffffffff5                   ",
"           DCCCCCCCCCC5BBBBBBBBBBBBBBBB5ggggggg5BBBB5gggggggg5BBBBBBBBBBBBBBBBBBBBBB5CCCCCCCCCCCD     5ggggggg5          5ggggggffffffffff5       5fffffff5        5ffffff5             5ffffff5     5ffffff5           5fffffffffffffffffff5                   ",
"            DCCCCCCCCCC5BBBBBBBBBBBBBBB5ggggggg5BBBBB5ggggggg5BBBBBBBBBBBBBBBBBBBBB5CCCCCCCCCCCD      5gggffff5          5ffffffffffffffff5       5fffffff5        5ffffff5             5ffffff5     5ffffff5           5fffffffffffffffffff5                   ",
"            DCCCCCCCCCC5BBBBBBBBBBBBBB5ggggggg5BBBBBB5ggggggg5BBBBBBBBBBBBBBBBBBB5CCCCCCCCCCCD       5fffffff5          55fffffffffffffff5       5fffffff5         5fffff5             5ffffff5     5ffffff5           5fffffffffffffffffff5                    ",
"             DCCCCCCCCCC5BBBBBBBBBBBBB5ggggggg5BBBBBB5ggggffff5BBBBBBBBBBBBBBBBB5CCCCCCCCCCCD        5fffffff5           5fffffffffffffff5       5fffffff5         5fffff5             5ffffff5     5ffffff5           5ffffff55555555555555                    ",
"              DCCCCCCCCCC5BBBBBBBBBBBB5gggffff5BBBBBBB5ffffffff5BBBBBBBBBBBBBBB5CCCCCCCCCCCD         5fffffff5           5fffffffffffffff5       5fffffff5         5fffff5             5ffffff5     5ffffff5           5ffffff5                                 ",
"              DCCCCCCCCCC5BBBBBBBBBBB5fffffff5BBBBBBBB5ffffffff5BBBBBBBBBBBBB5CCCCCCCCCCCD          5fffffff5           55ffffffffffffff5       5ffffffff5        5fffff5             5ffffff5     5ffffff5           5ffffff5            5                     ",
"               DCCCCCCCCCC5BBBBBBBBBB5fffffff5BBBBBBBB5fffffffff5BBBBBBBBBBB5CCCCCCCCCCCD           5fffffff5            5ffffffffffffff5       5ffffffff5       5ffffff5             5ffffff5     5ffffff5           5fffffff5         55f5                    ",
"                DCCCCCCCCCC5BBBBBBBBB5fffffff5BBBBBBBBB5ffffffff5BBBBBBBBBB5CCCCCCCCCCCD            5fffffff5             555555555555555       5ffffffff5       5ffffff5             5ffffff5     5ffffff5           5ffffffff55     55fff5                    ",
"                DCCCCCCCCCC5BBBBBBBB5fffffff5BBBBBBBBBB5ffffffff5BBBBBBBB5CCCCCCCCCCCD             5fffffff5                                    5ffffffff5      5fffff5              5ffffff5     5ffffff5            5fffffffff5  55fffff5                     ",
"                 DCCCCCCCCCC5BBBBBBB5fffffff5BBBBBBBBBBB5ffffffff5BBBBBB5CCCCCCCCCCCD              5fffffff5                                    5ffffffff55    5ffffff5              5ffffff5     5ffffff5             5fffffffff55ffffff5                      ",
"                  DCCCCCCCCCC5BBBBBB5fffffff5BBBBBBBBBBB5fffffffff5BBBB5CCCCCCCCCCCD              55fffffff5                                     5ffffffff5   5ffffff5               5fffffff5    5ffffff5             5ffffffffffffffff55                      ",
"                  DCCCCCCCCCD5BBBBB5fffffff5BBBBBBBBBBBB5fffffffff5BB5 DCCCCCCCCCD              55ffffffff5                                      5ffffffff555ffffff55              55ffffffff5  5ffffffff55            5fffffffffffffff5                        ",
"                   DCCCCCCCD  5BBB5ffffffff55BBBBBBBBBBB55fffffffff55   DCCCCCCCD              5fffffffffff555                                    5fffffffffffffff5               5fffffffffff5 5ffffffffff5            5fffffffffffff5                         ",
"                    DCCCCCD    5B5fffffffffff5BBBBBBBBBBB55fffffffff55   DCCCCCD              5ffffffffffffff5                                     55fffffffffff55                5ffffffffffff5fffffffffff5             5fffffffffff5                          ",
"                    DCCCD    555fffffffffffff5BBBBBBBBBBB5fffffffffff55  DCCCD               5555555555555555                                       55fffffff555                555555555555555555555555555              55fffffff555                           ",
"                     DCD    555fffffffffffffff5BBBBBBBBBBB5ffffffffffff55 DCD                                                                        55555555                                                              5555555                              ",
"                      D     55555555555555555555BBBBBBBBBBB555555555555555 D                                                                                                                                                                                    ",
"                                  5BBBBBBBBBBBBBBBBBBBBBBBBBBB5CCCD                                                                                                                                                                                             ",
"                                DC5BBBBBBBBBBBBBBBBBBBBBBBBB5CCCCCD                                                                                                                                                                                             ",
"                               DCCC5BBBBBBBBBBBBBBBBBBBBBBB5CCCCCCCD                                                                                                                                                                                            ",
"                              DCCCCC5BBBBBBBBBBBBBBBBBBBBB5CCCCCCCCCD                                                                                                                                                                                           ",
"                            DCCCCCCC5BBBBBBBBBBBBBBBBBBB5CCCCCCCCCCCD                                                                                                                                                                                           ",
"                           DCCCCCCCCC5BBBBBBBBBBBBBBBBB5CCCCCCCCCCCD                                                                                                                                                                                            ",
"                           DCCCCCCCCCC5BBBBBBBBBBBBBBB5CCCCCCCCCCCD                                                                                                                                                                                             ",
"                                                                                                                                                                                                                                                                "
};
